<mxfile host="65bd71144e">
    <diagram id="ht7baI4ykzEN5DaM_pXT" name="Page-1">
        <mxGraphModel dx="2467" dy="1190" grid="1" gridSize="10" guides="1" tooltips="1" connect="1" arrows="1" fold="1" page="1" pageScale="1" pageWidth="850" pageHeight="1100" math="0" shadow="0">
            <root>
                <mxCell id="0"/>
                <mxCell id="1" parent="0"/>
                <mxCell id="10" style="edgeStyle=none;html=1;exitX=0.5;exitY=0;exitDx=0;exitDy=0;" edge="1" parent="1" source="3">
                    <mxGeometry relative="1" as="geometry">
                        <mxPoint x="935" y="200" as="targetPoint"/>
                        <Array as="points">
                            <mxPoint x="60" y="150"/>
                            <mxPoint x="190" y="150"/>
                            <mxPoint x="935" y="150"/>
                        </Array>
                    </mxGeometry>
                </mxCell>
                <mxCell id="3" value="PERSON_ID" style="text;html=1;strokeColor=none;fillColor=none;align=center;verticalAlign=middle;whiteSpace=wrap;rounded=0;" vertex="1" parent="1">
                    <mxGeometry x="30" y="210" width="60" height="30" as="geometry"/>
                </mxCell>
                <mxCell id="4" value="FIRST_NAME" style="text;html=1;strokeColor=none;fillColor=none;align=center;verticalAlign=middle;whiteSpace=wrap;rounded=0;" vertex="1" parent="1">
                    <mxGeometry x="80" y="210" width="220" height="30" as="geometry"/>
                </mxCell>
                <mxCell id="5" value="MIDDLE_NAME" style="text;html=1;strokeColor=none;fillColor=none;align=center;verticalAlign=middle;whiteSpace=wrap;rounded=0;" vertex="1" parent="1">
                    <mxGeometry x="320" y="210" width="60" height="30" as="geometry"/>
                </mxCell>
                <mxCell id="6" value="LAST_NAME" style="text;html=1;strokeColor=none;fillColor=none;align=center;verticalAlign=middle;whiteSpace=wrap;rounded=0;" vertex="1" parent="1">
                    <mxGeometry x="460" y="210" width="60" height="30" as="geometry"/>
                </mxCell>
                <mxCell id="7" value="ADDRESS" style="text;html=1;strokeColor=none;fillColor=none;align=center;verticalAlign=middle;whiteSpace=wrap;rounded=0;" vertex="1" parent="1">
                    <mxGeometry x="600" y="210" width="60" height="30" as="geometry"/>
                </mxCell>
                <mxCell id="8" value="GENDER" style="text;html=1;strokeColor=none;fillColor=none;align=center;verticalAlign=middle;whiteSpace=wrap;rounded=0;" vertex="1" parent="1">
                    <mxGeometry x="740" y="210" width="60" height="30" as="geometry"/>
                </mxCell>
                <mxCell id="9" value="DATE_OF_BIRTH" style="text;html=1;strokeColor=none;fillColor=none;align=center;verticalAlign=middle;whiteSpace=wrap;rounded=0;" vertex="1" parent="1">
                    <mxGeometry x="890" y="210" width="60" height="30" as="geometry"/>
                </mxCell>
                <mxCell id="11" value="" style="endArrow=classic;html=1;" edge="1" parent="1">
                    <mxGeometry width="50" height="50" relative="1" as="geometry">
                        <mxPoint x="200" y="150" as="sourcePoint"/>
                        <mxPoint x="200" y="200" as="targetPoint"/>
                    </mxGeometry>
                </mxCell>
                <mxCell id="12" value="" style="endArrow=classic;html=1;" edge="1" parent="1">
                    <mxGeometry width="50" height="50" relative="1" as="geometry">
                        <mxPoint x="340" y="150" as="sourcePoint"/>
                        <mxPoint x="340" y="200" as="targetPoint"/>
                    </mxGeometry>
                </mxCell>
                <mxCell id="13" value="" style="endArrow=classic;html=1;" edge="1" parent="1">
                    <mxGeometry width="50" height="50" relative="1" as="geometry">
                        <mxPoint x="489.5" y="150" as="sourcePoint"/>
                        <mxPoint x="489.5" y="200" as="targetPoint"/>
                    </mxGeometry>
                </mxCell>
                <mxCell id="14" value="" style="endArrow=classic;html=1;" edge="1" parent="1">
                    <mxGeometry width="50" height="50" relative="1" as="geometry">
                        <mxPoint x="629.5" y="150" as="sourcePoint"/>
                        <mxPoint x="629.5" y="200" as="targetPoint"/>
                    </mxGeometry>
                </mxCell>
                <mxCell id="15" value="" style="endArrow=classic;html=1;" edge="1" parent="1">
                    <mxGeometry width="50" height="50" relative="1" as="geometry">
                        <mxPoint x="769.5" y="150" as="sourcePoint"/>
                        <mxPoint x="769.5" y="200" as="targetPoint"/>
                    </mxGeometry>
                </mxCell>
                <mxCell id="16" value="PHONE_NUMBER" style="text;html=1;strokeColor=none;fillColor=none;align=center;verticalAlign=middle;whiteSpace=wrap;rounded=0;" vertex="1" parent="1">
                    <mxGeometry x="190" y="310" width="60" height="30" as="geometry"/>
                </mxCell>
                <mxCell id="17" value="PERSON_ID" style="text;html=1;strokeColor=none;fillColor=none;align=center;verticalAlign=middle;whiteSpace=wrap;rounded=0;" vertex="1" parent="1">
                    <mxGeometry x="30" y="310" width="60" height="30" as="geometry"/>
                </mxCell>
                <mxCell id="18" value="AUTHOR_ID" style="text;html=1;strokeColor=none;fillColor=none;align=center;verticalAlign=middle;whiteSpace=wrap;rounded=0;" vertex="1" parent="1">
                    <mxGeometry x="40" y="490" width="60" height="30" as="geometry"/>
                </mxCell>
                <mxCell id="19" value="AUTHOR_NAME" style="text;html=1;strokeColor=none;fillColor=none;align=center;verticalAlign=middle;whiteSpace=wrap;rounded=0;" vertex="1" parent="1">
                    <mxGeometry x="170" y="490" width="60" height="30" as="geometry"/>
                </mxCell>
                <mxCell id="20" value="PERSON_ID" style="text;html=1;strokeColor=none;fillColor=none;align=center;verticalAlign=middle;whiteSpace=wrap;rounded=0;" vertex="1" parent="1">
                    <mxGeometry x="310" y="490" width="60" height="30" as="geometry"/>
                </mxCell>
                <mxCell id="21" value="" style="endArrow=classic;html=1;entryX=0.5;entryY=0;entryDx=0;entryDy=0;" edge="1" parent="1" target="20">
                    <mxGeometry width="50" height="50" relative="1" as="geometry">
                        <mxPoint x="60" y="480" as="sourcePoint"/>
                        <mxPoint x="360" y="440" as="targetPoint"/>
                        <Array as="points">
                            <mxPoint x="60" y="440"/>
                            <mxPoint x="340" y="440"/>
                        </Array>
                    </mxGeometry>
                </mxCell>
                <mxCell id="22" value="" style="endArrow=classic;html=1;" edge="1" parent="1">
                    <mxGeometry width="50" height="50" relative="1" as="geometry">
                        <mxPoint x="210" y="440" as="sourcePoint"/>
                        <mxPoint x="210" y="490" as="targetPoint"/>
                    </mxGeometry>
                </mxCell>
                <mxCell id="25" value="" style="group;rotation=-180;" vertex="1" connectable="0" parent="1">
                    <mxGeometry x="60" y="520" width="280" height="50" as="geometry"/>
                </mxCell>
                <mxCell id="23" value="" style="endArrow=classic;html=1;entryX=0.5;entryY=0;entryDx=0;entryDy=0;" edge="1" parent="25">
                    <mxGeometry width="50" height="50" relative="1" as="geometry">
                        <mxPoint x="280" y="10" as="sourcePoint"/>
                        <mxPoint as="targetPoint"/>
                        <Array as="points">
                            <mxPoint x="280" y="50"/>
                            <mxPoint y="50"/>
                        </Array>
                    </mxGeometry>
                </mxCell>
                <mxCell id="24" value="" style="endArrow=classic;html=1;" edge="1" parent="25">
                    <mxGeometry width="50" height="50" relative="1" as="geometry">
                        <mxPoint x="130" y="50" as="sourcePoint"/>
                        <mxPoint x="130" as="targetPoint"/>
                    </mxGeometry>
                </mxCell>
                <mxCell id="26" value="&lt;b&gt;PERSON&lt;/b&gt;" style="text;html=1;strokeColor=none;fillColor=none;align=center;verticalAlign=middle;whiteSpace=wrap;rounded=0;" vertex="1" parent="1">
                    <mxGeometry x="-70" y="210" width="60" height="30" as="geometry"/>
                </mxCell>
                <mxCell id="27" value="&lt;b&gt;PERSON_PHONE_NUMBER&lt;/b&gt;" style="text;html=1;strokeColor=none;fillColor=none;align=center;verticalAlign=middle;whiteSpace=wrap;rounded=0;" vertex="1" parent="1">
                    <mxGeometry x="-120" y="310" width="60" height="30" as="geometry"/>
                </mxCell>
                <mxCell id="28" value="&lt;b&gt;AUTHOR&lt;/b&gt;" style="text;html=1;strokeColor=none;fillColor=none;align=center;verticalAlign=middle;whiteSpace=wrap;rounded=0;" vertex="1" parent="1">
                    <mxGeometry x="-70" y="490" width="60" height="30" as="geometry"/>
                </mxCell>
                <mxCell id="29" value="DATE_OF_ISSUE" style="text;html=1;strokeColor=none;fillColor=none;align=center;verticalAlign=middle;whiteSpace=wrap;rounded=0;" vertex="1" parent="1">
                    <mxGeometry x="140" y="710" width="60" height="30" as="geometry"/>
                </mxCell>
                <mxCell id="30" value="CARD_ID" style="text;html=1;strokeColor=none;fillColor=none;align=center;verticalAlign=middle;whiteSpace=wrap;rounded=0;" vertex="1" parent="1">
                    <mxGeometry y="710" width="60" height="30" as="geometry"/>
                </mxCell>
                <mxCell id="31" value="MEMBERSHIP_LEVEL" style="text;html=1;strokeColor=none;fillColor=none;align=center;verticalAlign=middle;whiteSpace=wrap;rounded=0;" vertex="1" parent="1">
                    <mxGeometry x="330" y="710" width="60" height="30" as="geometry"/>
                </mxCell>
                <mxCell id="32" value="" style="endArrow=classic;html=1;entryX=0.5;entryY=0;entryDx=0;entryDy=0;" edge="1" parent="1">
                    <mxGeometry width="50" height="50" relative="1" as="geometry">
                        <mxPoint x="30" y="700" as="sourcePoint"/>
                        <mxPoint x="310" y="710" as="targetPoint"/>
                        <Array as="points">
                            <mxPoint x="30" y="660"/>
                            <mxPoint x="310" y="660"/>
                        </Array>
                    </mxGeometry>
                </mxCell>
                <mxCell id="33" value="" style="endArrow=classic;html=1;" edge="1" parent="1">
                    <mxGeometry width="50" height="50" relative="1" as="geometry">
                        <mxPoint x="180" y="660" as="sourcePoint"/>
                        <mxPoint x="180" y="710" as="targetPoint"/>
                    </mxGeometry>
                </mxCell>
                <mxCell id="34" value="&lt;b&gt;LIBRARY_CARD&lt;/b&gt;" style="text;html=1;strokeColor=none;fillColor=none;align=center;verticalAlign=middle;whiteSpace=wrap;rounded=0;" vertex="1" parent="1">
                    <mxGeometry x="-90" y="710" width="60" height="30" as="geometry"/>
                </mxCell>
                <mxCell id="35" value="PERSON_ID" style="text;html=1;strokeColor=none;fillColor=none;align=center;verticalAlign=middle;whiteSpace=wrap;rounded=0;" vertex="1" parent="1">
                    <mxGeometry x="20" y="880" width="60" height="30" as="geometry"/>
                </mxCell>
                <mxCell id="36" value="CARD_ID" style="text;html=1;strokeColor=none;fillColor=none;align=center;verticalAlign=middle;whiteSpace=wrap;rounded=0;" vertex="1" parent="1">
                    <mxGeometry x="130" y="880" width="60" height="30" as="geometry"/>
                </mxCell>
                <mxCell id="39" value="" style="endArrow=classic;html=1;" edge="1" parent="1">
                    <mxGeometry width="50" height="50" relative="1" as="geometry">
                        <mxPoint x="30" y="870" as="sourcePoint"/>
                        <mxPoint x="170" y="870" as="targetPoint"/>
                        <Array as="points">
                            <mxPoint x="30" y="830"/>
                            <mxPoint x="170" y="830"/>
                        </Array>
                    </mxGeometry>
                </mxCell>
                <mxCell id="41" value="" style="endArrow=classic;html=1;exitX=0.633;exitY=1.067;exitDx=0;exitDy=0;entryX=0.25;entryY=1;entryDx=0;entryDy=0;exitPerimeter=0;" edge="1" parent="1" source="36" target="35">
                    <mxGeometry width="50" height="50" relative="1" as="geometry">
                        <mxPoint x="30" y="930" as="sourcePoint"/>
                        <mxPoint x="-30" y="930" as="targetPoint"/>
                        <Array as="points">
                            <mxPoint x="168" y="950"/>
                            <mxPoint x="35" y="950"/>
                        </Array>
                    </mxGeometry>
                </mxCell>
                <mxCell id="44" value="&lt;b&gt;MEMBER&lt;/b&gt;" style="text;html=1;strokeColor=none;fillColor=none;align=center;verticalAlign=middle;whiteSpace=wrap;rounded=0;" vertex="1" parent="1">
                    <mxGeometry x="-80" y="880" width="60" height="30" as="geometry"/>
                </mxCell>
                <mxCell id="45" value="START_DATE" style="text;html=1;strokeColor=none;fillColor=none;align=center;verticalAlign=middle;whiteSpace=wrap;rounded=0;" vertex="1" parent="1">
                    <mxGeometry x="500" y="890" width="60" height="30" as="geometry"/>
                </mxCell>
                <mxCell id="46" value="PERSON_ID" style="text;html=1;strokeColor=none;fillColor=none;align=center;verticalAlign=middle;whiteSpace=wrap;rounded=0;" vertex="1" parent="1">
                    <mxGeometry x="360" y="890" width="60" height="30" as="geometry"/>
                </mxCell>
                <mxCell id="47" value="DESIGNATION" style="text;html=1;strokeColor=none;fillColor=none;align=center;verticalAlign=middle;whiteSpace=wrap;rounded=0;" vertex="1" parent="1">
                    <mxGeometry x="640" y="890" width="60" height="30" as="geometry"/>
                </mxCell>
                <mxCell id="48" value="" style="endArrow=classic;html=1;entryX=0.5;entryY=0;entryDx=0;entryDy=0;" edge="1" parent="1">
                    <mxGeometry width="50" height="50" relative="1" as="geometry">
                        <mxPoint x="390" y="880" as="sourcePoint"/>
                        <mxPoint x="670" y="890" as="targetPoint"/>
                        <Array as="points">
                            <mxPoint x="390" y="840"/>
                            <mxPoint x="670" y="840"/>
                        </Array>
                    </mxGeometry>
                </mxCell>
                <mxCell id="49" value="" style="endArrow=classic;html=1;" edge="1" parent="1">
                    <mxGeometry width="50" height="50" relative="1" as="geometry">
                        <mxPoint x="540" y="840" as="sourcePoint"/>
                        <mxPoint x="540" y="890" as="targetPoint"/>
                    </mxGeometry>
                </mxCell>
                <mxCell id="50" value="&lt;b&gt;EMPLOYEE&lt;/b&gt;" style="text;html=1;strokeColor=none;fillColor=none;align=center;verticalAlign=middle;whiteSpace=wrap;rounded=0;" vertex="1" parent="1">
                    <mxGeometry x="270" y="890" width="60" height="30" as="geometry"/>
                </mxCell>
                <mxCell id="51" value="EMPLOYEE_ID" style="text;html=1;strokeColor=none;fillColor=none;align=center;verticalAlign=middle;whiteSpace=wrap;rounded=0;" vertex="1" parent="1">
                    <mxGeometry x="690" y="490" width="60" height="30" as="geometry"/>
                </mxCell>
                <mxCell id="52" value="TRAINER_ID" style="text;html=1;strokeColor=none;fillColor=none;align=center;verticalAlign=middle;whiteSpace=wrap;rounded=0;" vertex="1" parent="1">
                    <mxGeometry x="570" y="490" width="60" height="30" as="geometry"/>
                </mxCell>
                <mxCell id="53" value="DATE_STARTED" style="text;html=1;strokeColor=none;fillColor=none;align=center;verticalAlign=middle;whiteSpace=wrap;rounded=0;" vertex="1" parent="1">
                    <mxGeometry x="940" y="490" width="60" height="30" as="geometry"/>
                </mxCell>
                <mxCell id="54" value="" style="endArrow=classic;html=1;" edge="1" parent="1">
                    <mxGeometry width="50" height="50" relative="1" as="geometry">
                        <mxPoint x="600" y="480" as="sourcePoint"/>
                        <mxPoint x="970" y="490" as="targetPoint"/>
                        <Array as="points">
                            <mxPoint x="600" y="440"/>
                            <mxPoint x="970" y="440"/>
                        </Array>
                    </mxGeometry>
                </mxCell>
                <mxCell id="55" value="" style="endArrow=classic;html=1;" edge="1" parent="1">
                    <mxGeometry width="50" height="50" relative="1" as="geometry">
                        <mxPoint x="820" y="440" as="sourcePoint"/>
                        <mxPoint x="820" y="490" as="targetPoint"/>
                    </mxGeometry>
                </mxCell>
                <mxCell id="56" value="&lt;b&gt;TRAINER&lt;/b&gt;" style="text;html=1;strokeColor=none;fillColor=none;align=center;verticalAlign=middle;whiteSpace=wrap;rounded=0;" vertex="1" parent="1">
                    <mxGeometry x="480" y="490" width="60" height="30" as="geometry"/>
                </mxCell>
                <mxCell id="57" value="" style="endArrow=classic;html=1;" edge="1" parent="1">
                    <mxGeometry width="50" height="50" relative="1" as="geometry">
                        <mxPoint x="710" y="440" as="sourcePoint"/>
                        <mxPoint x="710" y="490" as="targetPoint"/>
                    </mxGeometry>
                </mxCell>
                <mxCell id="58" value="HOURS_OF_TRAINING" style="text;html=1;strokeColor=none;fillColor=none;align=center;verticalAlign=middle;whiteSpace=wrap;rounded=0;" vertex="1" parent="1">
                    <mxGeometry x="820" y="490" width="60" height="30" as="geometry"/>
                </mxCell>
                <mxCell id="59" value="PERSON_ID" style="text;html=1;strokeColor=none;fillColor=none;align=center;verticalAlign=middle;whiteSpace=wrap;rounded=0;" vertex="1" parent="1">
                    <mxGeometry x="590" y="650" width="60" height="30" as="geometry"/>
                </mxCell>
                <mxCell id="60" value="TRAINER_ID" style="text;html=1;strokeColor=none;fillColor=none;align=center;verticalAlign=middle;whiteSpace=wrap;rounded=0;" vertex="1" parent="1">
                    <mxGeometry x="700" y="650" width="60" height="30" as="geometry"/>
                </mxCell>
                <mxCell id="61" value="" style="endArrow=classic;html=1;" edge="1" parent="1">
                    <mxGeometry width="50" height="50" relative="1" as="geometry">
                        <mxPoint x="600" y="640" as="sourcePoint"/>
                        <mxPoint x="740" y="640" as="targetPoint"/>
                        <Array as="points">
                            <mxPoint x="600" y="600"/>
                            <mxPoint x="740" y="600"/>
                        </Array>
                    </mxGeometry>
                </mxCell>
                <mxCell id="63" value="&lt;b&gt;RECEPTIONIST&lt;/b&gt;" style="text;html=1;strokeColor=none;fillColor=none;align=center;verticalAlign=middle;whiteSpace=wrap;rounded=0;" vertex="1" parent="1">
                    <mxGeometry x="490" y="650" width="60" height="30" as="geometry"/>
                </mxCell>
                <mxCell id="64" value="PERSON_ID" style="text;html=1;strokeColor=none;fillColor=none;align=center;verticalAlign=middle;whiteSpace=wrap;rounded=0;" vertex="1" parent="1">
                    <mxGeometry x="990" y="640" width="60" height="30" as="geometry"/>
                </mxCell>
                <mxCell id="65" value="TRAINER_ID" style="text;html=1;strokeColor=none;fillColor=none;align=center;verticalAlign=middle;whiteSpace=wrap;rounded=0;" vertex="1" parent="1">
                    <mxGeometry x="1100" y="640" width="60" height="30" as="geometry"/>
                </mxCell>
                <mxCell id="66" value="" style="endArrow=classic;html=1;" edge="1" parent="1">
                    <mxGeometry width="50" height="50" relative="1" as="geometry">
                        <mxPoint x="1000" y="630" as="sourcePoint"/>
                        <mxPoint x="1140" y="630" as="targetPoint"/>
                        <Array as="points">
                            <mxPoint x="1000" y="590"/>
                            <mxPoint x="1140" y="590"/>
                        </Array>
                    </mxGeometry>
                </mxCell>
                <mxCell id="68" value="&lt;b&gt;LIBRARY_SUPERVISOR&lt;/b&gt;" style="text;html=1;strokeColor=none;fillColor=none;align=center;verticalAlign=middle;whiteSpace=wrap;rounded=0;" vertex="1" parent="1">
                    <mxGeometry x="860" y="640" width="60" height="30" as="geometry"/>
                </mxCell>
                <mxCell id="74" value="PERSON_ID" style="text;html=1;strokeColor=none;fillColor=none;align=center;verticalAlign=middle;whiteSpace=wrap;rounded=0;" vertex="1" parent="1">
                    <mxGeometry x="935" y="850" width="60" height="30" as="geometry"/>
                </mxCell>
                <mxCell id="75" value="TRAINER_ID" style="text;html=1;strokeColor=none;fillColor=none;align=center;verticalAlign=middle;whiteSpace=wrap;rounded=0;" vertex="1" parent="1">
                    <mxGeometry x="1045" y="850" width="60" height="30" as="geometry"/>
                </mxCell>
                <mxCell id="76" value="" style="endArrow=classic;html=1;" edge="1" parent="1">
                    <mxGeometry width="50" height="50" relative="1" as="geometry">
                        <mxPoint x="945" y="840" as="sourcePoint"/>
                        <mxPoint x="1085" y="840" as="targetPoint"/>
                        <Array as="points">
                            <mxPoint x="945" y="800"/>
                            <mxPoint x="1085" y="800"/>
                        </Array>
                    </mxGeometry>
                </mxCell>
                <mxCell id="78" value="&lt;b&gt;CATALOGING_MANAGER&lt;/b&gt;" style="text;html=1;strokeColor=none;fillColor=none;align=center;verticalAlign=middle;whiteSpace=wrap;rounded=0;" vertex="1" parent="1">
                    <mxGeometry x="810" y="850" width="60" height="30" as="geometry"/>
                </mxCell>
                <mxCell id="95" value="MEMBER_ID" style="text;html=1;strokeColor=none;fillColor=none;align=center;verticalAlign=middle;whiteSpace=wrap;rounded=0;" vertex="1" parent="1">
                    <mxGeometry x="1320" y="390" width="60" height="30" as="geometry"/>
                </mxCell>
                <mxCell id="96" value="BOOK_ID" style="text;html=1;strokeColor=none;fillColor=none;align=center;verticalAlign=middle;whiteSpace=wrap;rounded=0;" vertex="1" parent="1">
                    <mxGeometry x="1200" y="390" width="60" height="30" as="geometry"/>
                </mxCell>
                <mxCell id="97" value="PAYMENT_ID" style="text;html=1;strokeColor=none;fillColor=none;align=center;verticalAlign=middle;whiteSpace=wrap;rounded=0;" vertex="1" parent="1">
                    <mxGeometry x="1570" y="390" width="60" height="30" as="geometry"/>
                </mxCell>
                <mxCell id="98" value="" style="endArrow=classic;html=1;" edge="1" parent="1">
                    <mxGeometry width="50" height="50" relative="1" as="geometry">
                        <mxPoint x="1230" y="380" as="sourcePoint"/>
                        <mxPoint x="1600" y="390" as="targetPoint"/>
                        <Array as="points">
                            <mxPoint x="1230" y="340"/>
                            <mxPoint x="1600" y="340"/>
                        </Array>
                    </mxGeometry>
                </mxCell>
                <mxCell id="99" value="" style="endArrow=classic;html=1;" edge="1" parent="1">
                    <mxGeometry width="50" height="50" relative="1" as="geometry">
                        <mxPoint x="1450" y="340" as="sourcePoint"/>
                        <mxPoint x="1450" y="390" as="targetPoint"/>
                    </mxGeometry>
                </mxCell>
                <mxCell id="100" value="&lt;b&gt;BOOK_ISSUE&lt;/b&gt;" style="text;html=1;strokeColor=none;fillColor=none;align=center;verticalAlign=middle;whiteSpace=wrap;rounded=0;" vertex="1" parent="1">
                    <mxGeometry x="1110" y="390" width="60" height="30" as="geometry"/>
                </mxCell>
                <mxCell id="101" value="" style="endArrow=classic;html=1;" edge="1" parent="1">
                    <mxGeometry width="50" height="50" relative="1" as="geometry">
                        <mxPoint x="1340" y="340" as="sourcePoint"/>
                        <mxPoint x="1340" y="390" as="targetPoint"/>
                    </mxGeometry>
                </mxCell>
                <mxCell id="102" value="ISSUE_DATE" style="text;html=1;strokeColor=none;fillColor=none;align=center;verticalAlign=middle;whiteSpace=wrap;rounded=0;" vertex="1" parent="1">
                    <mxGeometry x="1430" y="390" width="60" height="30" as="geometry"/>
                </mxCell>
                <mxCell id="111" value="ISSUE_DATE" style="text;html=1;strokeColor=none;fillColor=none;align=center;verticalAlign=middle;whiteSpace=wrap;rounded=0;" vertex="1" parent="1">
                    <mxGeometry x="1190" y="500" width="60" height="30" as="geometry"/>
                </mxCell>
                <mxCell id="112" value="DUE_DATE" style="text;html=1;strokeColor=none;fillColor=none;align=center;verticalAlign=middle;whiteSpace=wrap;rounded=0;" vertex="1" parent="1">
                    <mxGeometry x="1300" y="500" width="60" height="30" as="geometry"/>
                </mxCell>
                <mxCell id="113" value="" style="endArrow=classic;html=1;" edge="1" parent="1">
                    <mxGeometry width="50" height="50" relative="1" as="geometry">
                        <mxPoint x="1200" y="490" as="sourcePoint"/>
                        <mxPoint x="1340" y="490" as="targetPoint"/>
                        <Array as="points">
                            <mxPoint x="1200" y="450"/>
                            <mxPoint x="1340" y="450"/>
                        </Array>
                    </mxGeometry>
                </mxCell>
                <mxCell id="114" value="&lt;b&gt;DUE_DATE&lt;/b&gt;" style="text;html=1;strokeColor=none;fillColor=none;align=center;verticalAlign=middle;whiteSpace=wrap;rounded=0;" vertex="1" parent="1">
                    <mxGeometry x="1105" y="500" width="60" height="30" as="geometry"/>
                </mxCell>
                <mxCell id="115" value="DATE" style="text;html=1;strokeColor=none;fillColor=none;align=center;verticalAlign=middle;whiteSpace=wrap;rounded=0;" vertex="1" parent="1">
                    <mxGeometry x="1690" y="500" width="60" height="30" as="geometry"/>
                </mxCell>
                <mxCell id="116" value="BOOK_ID" style="text;html=1;strokeColor=none;fillColor=none;align=center;verticalAlign=middle;whiteSpace=wrap;rounded=0;" vertex="1" parent="1">
                    <mxGeometry x="1550" y="500" width="60" height="30" as="geometry"/>
                </mxCell>
                <mxCell id="117" value="CATALOGING_MANAGER_ID" style="text;html=1;strokeColor=none;fillColor=none;align=center;verticalAlign=middle;whiteSpace=wrap;rounded=0;" vertex="1" parent="1">
                    <mxGeometry x="1830" y="500" width="60" height="30" as="geometry"/>
                </mxCell>
                <mxCell id="118" value="" style="endArrow=classic;html=1;entryX=0.5;entryY=0;entryDx=0;entryDy=0;" edge="1" parent="1">
                    <mxGeometry width="50" height="50" relative="1" as="geometry">
                        <mxPoint x="1580" y="490" as="sourcePoint"/>
                        <mxPoint x="1860" y="500" as="targetPoint"/>
                        <Array as="points">
                            <mxPoint x="1580" y="450"/>
                            <mxPoint x="1860" y="450"/>
                        </Array>
                    </mxGeometry>
                </mxCell>
                <mxCell id="120" value="&lt;b&gt;BOOK_CATALOG&lt;/b&gt;" style="text;html=1;strokeColor=none;fillColor=none;align=center;verticalAlign=middle;whiteSpace=wrap;rounded=0;" vertex="1" parent="1">
                    <mxGeometry x="1460" y="500" width="60" height="30" as="geometry"/>
                </mxCell>
                <mxCell id="121" value="" style="endArrow=none;html=1;" edge="1" parent="1" source="115">
                    <mxGeometry width="50" height="50" relative="1" as="geometry">
                        <mxPoint x="1490" y="690" as="sourcePoint"/>
                        <mxPoint x="1720" y="450" as="targetPoint"/>
                    </mxGeometry>
                </mxCell>
                <mxCell id="122" value="BOOK_ID" style="text;html=1;strokeColor=none;fillColor=none;align=center;verticalAlign=middle;whiteSpace=wrap;rounded=0;" vertex="1" parent="1">
                    <mxGeometry x="1335" y="630" width="60" height="30" as="geometry"/>
                </mxCell>
                <mxCell id="123" value="CATEGORY" style="text;html=1;strokeColor=none;fillColor=none;align=center;verticalAlign=middle;whiteSpace=wrap;rounded=0;" vertex="1" parent="1">
                    <mxGeometry x="1460" y="620" width="60" height="30" as="geometry"/>
                </mxCell>
                <mxCell id="124" value="" style="endArrow=classic;html=1;" edge="1" parent="1">
                    <mxGeometry width="50" height="50" relative="1" as="geometry">
                        <mxPoint x="1345" y="620" as="sourcePoint"/>
                        <mxPoint x="1485" y="620" as="targetPoint"/>
                        <Array as="points">
                            <mxPoint x="1345" y="580"/>
                            <mxPoint x="1485" y="580"/>
                        </Array>
                    </mxGeometry>
                </mxCell>
                <mxCell id="125" value="&lt;b&gt;BOOK_CATEGORY&lt;/b&gt;" style="text;html=1;strokeColor=none;fillColor=none;align=center;verticalAlign=middle;whiteSpace=wrap;rounded=0;" vertex="1" parent="1">
                    <mxGeometry x="1240" y="630" width="60" height="30" as="geometry"/>
                </mxCell>
                <mxCell id="140" value="PUBLISHER_NAME" style="text;html=1;strokeColor=none;fillColor=none;align=center;verticalAlign=middle;whiteSpace=wrap;rounded=0;" vertex="1" parent="1">
                    <mxGeometry x="2340" y="370" width="60" height="30" as="geometry"/>
                </mxCell>
                <mxCell id="141" value="PUBLISHER_ID" style="text;html=1;strokeColor=none;fillColor=none;align=center;verticalAlign=middle;whiteSpace=wrap;rounded=0;" vertex="1" parent="1">
                    <mxGeometry x="2220" y="370" width="60" height="30" as="geometry"/>
                </mxCell>
                <mxCell id="142" value="CONTACT" style="text;html=1;strokeColor=none;fillColor=none;align=center;verticalAlign=middle;whiteSpace=wrap;rounded=0;" vertex="1" parent="1">
                    <mxGeometry x="2590" y="370" width="60" height="30" as="geometry"/>
                </mxCell>
                <mxCell id="143" value="" style="endArrow=classic;html=1;" edge="1" parent="1">
                    <mxGeometry width="50" height="50" relative="1" as="geometry">
                        <mxPoint x="2250" y="360" as="sourcePoint"/>
                        <mxPoint x="2620" y="370" as="targetPoint"/>
                        <Array as="points">
                            <mxPoint x="2250" y="320"/>
                            <mxPoint x="2620" y="320"/>
                        </Array>
                    </mxGeometry>
                </mxCell>
                <mxCell id="145" value="&lt;b&gt;PUBLISHER&lt;/b&gt;" style="text;html=1;strokeColor=none;fillColor=none;align=center;verticalAlign=middle;whiteSpace=wrap;rounded=0;" vertex="1" parent="1">
                    <mxGeometry x="2130" y="370" width="60" height="30" as="geometry"/>
                </mxCell>
                <mxCell id="146" value="" style="endArrow=classic;html=1;" edge="1" parent="1">
                    <mxGeometry width="50" height="50" relative="1" as="geometry">
                        <mxPoint x="2360" y="320" as="sourcePoint"/>
                        <mxPoint x="2360" y="370" as="targetPoint"/>
                    </mxGeometry>
                </mxCell>
                <mxCell id="147" value="ADDRESS" style="text;html=1;strokeColor=none;fillColor=none;align=center;verticalAlign=middle;whiteSpace=wrap;rounded=0;" vertex="1" parent="1">
                    <mxGeometry x="2430" y="370" width="60" height="30" as="geometry"/>
                </mxCell>
                <mxCell id="148" value="EMAIL" style="text;html=1;strokeColor=none;fillColor=none;align=center;verticalAlign=middle;whiteSpace=wrap;rounded=0;" vertex="1" parent="1">
                    <mxGeometry x="2510" y="370" width="60" height="30" as="geometry"/>
                </mxCell>
                <mxCell id="151" value="" style="endArrow=classic;html=1;" edge="1" parent="1">
                    <mxGeometry width="50" height="50" relative="1" as="geometry">
                        <mxPoint x="2459.5" y="320" as="sourcePoint"/>
                        <mxPoint x="2459.5" y="370" as="targetPoint"/>
                    </mxGeometry>
                </mxCell>
                <mxCell id="152" value="" style="endArrow=classic;html=1;" edge="1" parent="1">
                    <mxGeometry width="50" height="50" relative="1" as="geometry">
                        <mxPoint x="2530" y="320" as="sourcePoint"/>
                        <mxPoint x="2530" y="370" as="targetPoint"/>
                    </mxGeometry>
                </mxCell>
                <mxCell id="153" value="" style="endArrow=classic;html=1;startArrow=classic;startFill=1;" edge="1" parent="1">
                    <mxGeometry width="50" height="50" relative="1" as="geometry">
                        <mxPoint x="2250" y="310" as="sourcePoint"/>
                        <mxPoint x="2620" y="310" as="targetPoint"/>
                        <Array as="points">
                            <mxPoint x="2250" y="260"/>
                            <mxPoint x="2620" y="260"/>
                        </Array>
                    </mxGeometry>
                </mxCell>
                <mxCell id="154" value="" style="endArrow=classic;html=1;" edge="1" parent="1">
                    <mxGeometry width="50" height="50" relative="1" as="geometry">
                        <mxPoint x="2360" y="260" as="sourcePoint"/>
                        <mxPoint x="2360" y="310" as="targetPoint"/>
                    </mxGeometry>
                </mxCell>
                <mxCell id="156" value="" style="endArrow=classic;html=1;" edge="1" parent="1">
                    <mxGeometry width="50" height="50" relative="1" as="geometry">
                        <mxPoint x="2530" y="260" as="sourcePoint"/>
                        <mxPoint x="2530" y="310" as="targetPoint"/>
                    </mxGeometry>
                </mxCell>
                <mxCell id="157" value="" style="endArrow=none;html=1;" edge="1" parent="1">
                    <mxGeometry width="50" height="50" relative="1" as="geometry">
                        <mxPoint x="2459.5" y="310" as="sourcePoint"/>
                        <mxPoint x="2459.5" y="260" as="targetPoint"/>
                    </mxGeometry>
                </mxCell>
                <mxCell id="158" value="" style="endArrow=none;html=1;startArrow=classic;startFill=1;endFill=0;" edge="1" parent="1">
                    <mxGeometry width="50" height="50" relative="1" as="geometry">
                        <mxPoint x="2250" y="250" as="sourcePoint"/>
                        <mxPoint x="2620" y="250" as="targetPoint"/>
                        <Array as="points">
                            <mxPoint x="2250" y="200"/>
                            <mxPoint x="2620" y="200"/>
                        </Array>
                    </mxGeometry>
                </mxCell>
                <mxCell id="159" value="" style="endArrow=classic;html=1;" edge="1" parent="1">
                    <mxGeometry width="50" height="50" relative="1" as="geometry">
                        <mxPoint x="2360" y="200" as="sourcePoint"/>
                        <mxPoint x="2360" y="250" as="targetPoint"/>
                    </mxGeometry>
                </mxCell>
                <mxCell id="160" value="" style="endArrow=classic;html=1;" edge="1" parent="1">
                    <mxGeometry width="50" height="50" relative="1" as="geometry">
                        <mxPoint x="2530" y="200" as="sourcePoint"/>
                        <mxPoint x="2530" y="250" as="targetPoint"/>
                    </mxGeometry>
                </mxCell>
                <mxCell id="162" value="" style="endArrow=classic;html=1;startArrow=classic;startFill=1;" edge="1" parent="1">
                    <mxGeometry width="50" height="50" relative="1" as="geometry">
                        <mxPoint x="2250" y="190" as="sourcePoint"/>
                        <mxPoint x="2620" y="190" as="targetPoint"/>
                        <Array as="points">
                            <mxPoint x="2250" y="140"/>
                            <mxPoint x="2620" y="140"/>
                        </Array>
                    </mxGeometry>
                </mxCell>
                <mxCell id="163" value="" style="endArrow=classic;html=1;" edge="1" parent="1">
                    <mxGeometry width="50" height="50" relative="1" as="geometry">
                        <mxPoint x="2360" y="140" as="sourcePoint"/>
                        <mxPoint x="2360" y="190" as="targetPoint"/>
                    </mxGeometry>
                </mxCell>
                <mxCell id="164" value="" style="endArrow=classic;html=1;" edge="1" parent="1">
                    <mxGeometry width="50" height="50" relative="1" as="geometry">
                        <mxPoint x="2459.5" y="140" as="sourcePoint"/>
                        <mxPoint x="2459.5" y="190" as="targetPoint"/>
                    </mxGeometry>
                </mxCell>
                <mxCell id="165" value="" style="endArrow=none;html=1;" edge="1" parent="1">
                    <mxGeometry width="50" height="50" relative="1" as="geometry">
                        <mxPoint x="2530" y="190" as="sourcePoint"/>
                        <mxPoint x="2530" y="140" as="targetPoint"/>
                    </mxGeometry>
                </mxCell>
                <mxCell id="166" value="" style="endArrow=classic;html=1;" edge="1" parent="1">
                    <mxGeometry width="50" height="50" relative="1" as="geometry">
                        <mxPoint x="2459.5" y="200" as="sourcePoint"/>
                        <mxPoint x="2459.5" y="250" as="targetPoint"/>
                    </mxGeometry>
                </mxCell>
                <mxCell id="167" value="BOOK_TITLE" style="text;html=1;strokeColor=none;fillColor=none;align=center;verticalAlign=middle;whiteSpace=wrap;rounded=0;" vertex="1" parent="1">
                    <mxGeometry x="2300" y="525" width="60" height="30" as="geometry"/>
                </mxCell>
                <mxCell id="168" value="BOOK_ID" style="text;html=1;strokeColor=none;fillColor=none;align=center;verticalAlign=middle;whiteSpace=wrap;rounded=0;" vertex="1" parent="1">
                    <mxGeometry x="2210" y="525" width="60" height="30" as="geometry"/>
                </mxCell>
                <mxCell id="169" value="CATEGORY" style="text;html=1;strokeColor=none;fillColor=none;align=center;verticalAlign=middle;whiteSpace=wrap;rounded=0;" vertex="1" parent="1">
                    <mxGeometry x="2580" y="525" width="60" height="30" as="geometry"/>
                </mxCell>
                <mxCell id="170" value="" style="endArrow=classic;html=1;" edge="1" parent="1">
                    <mxGeometry width="50" height="50" relative="1" as="geometry">
                        <mxPoint x="2240" y="515" as="sourcePoint"/>
                        <mxPoint x="2610" y="525" as="targetPoint"/>
                        <Array as="points">
                            <mxPoint x="2240" y="475"/>
                            <mxPoint x="2610" y="475"/>
                        </Array>
                    </mxGeometry>
                </mxCell>
                <mxCell id="171" value="&lt;b&gt;BOOKS&lt;/b&gt;" style="text;html=1;strokeColor=none;fillColor=none;align=center;verticalAlign=middle;whiteSpace=wrap;rounded=0;" vertex="1" parent="1">
                    <mxGeometry x="2120" y="525" width="60" height="30" as="geometry"/>
                </mxCell>
                <mxCell id="172" value="" style="endArrow=classic;html=1;" edge="1" parent="1">
                    <mxGeometry width="50" height="50" relative="1" as="geometry">
                        <mxPoint x="2330" y="475" as="sourcePoint"/>
                        <mxPoint x="2330" y="525" as="targetPoint"/>
                    </mxGeometry>
                </mxCell>
                <mxCell id="173" value="BOOK_EDITION" style="text;html=1;strokeColor=none;fillColor=none;align=center;verticalAlign=middle;whiteSpace=wrap;rounded=0;" vertex="1" parent="1">
                    <mxGeometry x="2400" y="525" width="60" height="30" as="geometry"/>
                </mxCell>
                <mxCell id="174" value="PUBLISHER_ID" style="text;html=1;strokeColor=none;fillColor=none;align=center;verticalAlign=middle;whiteSpace=wrap;rounded=0;" vertex="1" parent="1">
                    <mxGeometry x="2500" y="525" width="60" height="30" as="geometry"/>
                </mxCell>
                <mxCell id="175" value="" style="endArrow=classic;html=1;" edge="1" parent="1">
                    <mxGeometry width="50" height="50" relative="1" as="geometry">
                        <mxPoint x="2430" y="475" as="sourcePoint"/>
                        <mxPoint x="2430" y="525" as="targetPoint"/>
                    </mxGeometry>
                </mxCell>
                <mxCell id="176" value="" style="endArrow=classic;html=1;" edge="1" parent="1">
                    <mxGeometry width="50" height="50" relative="1" as="geometry">
                        <mxPoint x="2520" y="475" as="sourcePoint"/>
                        <mxPoint x="2520" y="525" as="targetPoint"/>
                    </mxGeometry>
                </mxCell>
                <mxCell id="177" value="AUTHOR_ID" style="text;html=1;strokeColor=none;fillColor=none;align=center;verticalAlign=middle;whiteSpace=wrap;rounded=0;" vertex="1" parent="1">
                    <mxGeometry x="2460" y="620" width="60" height="30" as="geometry"/>
                </mxCell>
                <mxCell id="178" value="BOOK_ID" style="text;html=1;strokeColor=none;fillColor=none;align=center;verticalAlign=middle;whiteSpace=wrap;rounded=0;" vertex="1" parent="1">
                    <mxGeometry x="2300" y="620" width="60" height="30" as="geometry"/>
                </mxCell>
                <mxCell id="179" value="&lt;b&gt;WRITES_BOOK&lt;/b&gt;" style="text;html=1;strokeColor=none;fillColor=none;align=center;verticalAlign=middle;whiteSpace=wrap;rounded=0;" vertex="1" parent="1">
                    <mxGeometry x="2150" y="620" width="60" height="30" as="geometry"/>
                </mxCell>
                <mxCell id="194" value="" style="group" vertex="1" connectable="0" parent="1">
                    <mxGeometry x="1120" y="140" width="1000" height="90" as="geometry"/>
                </mxCell>
                <mxCell id="79" style="edgeStyle=none;html=1;exitX=0.5;exitY=0;exitDx=0;exitDy=0;" edge="1" parent="194" source="80">
                    <mxGeometry relative="1" as="geometry">
                        <mxPoint x="985" y="50" as="targetPoint"/>
                        <Array as="points">
                            <mxPoint x="110"/>
                            <mxPoint x="240"/>
                            <mxPoint x="985"/>
                        </Array>
                    </mxGeometry>
                </mxCell>
                <mxCell id="80" value="PAYMENT_ID" style="text;html=1;strokeColor=none;fillColor=none;align=center;verticalAlign=middle;whiteSpace=wrap;rounded=0;" vertex="1" parent="194">
                    <mxGeometry x="80" y="60" width="60" height="30" as="geometry"/>
                </mxCell>
                <mxCell id="81" value="RECEPTIONIST_ID" style="text;html=1;strokeColor=none;fillColor=none;align=center;verticalAlign=middle;whiteSpace=wrap;rounded=0;" vertex="1" parent="194">
                    <mxGeometry x="130" y="60" width="220" height="30" as="geometry"/>
                </mxCell>
                <mxCell id="82" value="MEMBER_ID" style="text;html=1;strokeColor=none;fillColor=none;align=center;verticalAlign=middle;whiteSpace=wrap;rounded=0;" vertex="1" parent="194">
                    <mxGeometry x="370" y="60" width="60" height="30" as="geometry"/>
                </mxCell>
                <mxCell id="83" value="ISSUE_DATE" style="text;html=1;strokeColor=none;fillColor=none;align=center;verticalAlign=middle;whiteSpace=wrap;rounded=0;" vertex="1" parent="194">
                    <mxGeometry x="510" y="60" width="60" height="30" as="geometry"/>
                </mxCell>
                <mxCell id="85" value="PAYMENT_TIME" style="text;html=1;strokeColor=none;fillColor=none;align=center;verticalAlign=middle;whiteSpace=wrap;rounded=0;" vertex="1" parent="194">
                    <mxGeometry x="830" y="60" width="60" height="30" as="geometry"/>
                </mxCell>
                <mxCell id="86" value="AMOUNT" style="text;html=1;strokeColor=none;fillColor=none;align=center;verticalAlign=middle;whiteSpace=wrap;rounded=0;" vertex="1" parent="194">
                    <mxGeometry x="940" y="60" width="60" height="30" as="geometry"/>
                </mxCell>
                <mxCell id="87" value="" style="endArrow=classic;html=1;" edge="1" parent="194">
                    <mxGeometry width="50" height="50" relative="1" as="geometry">
                        <mxPoint x="250" as="sourcePoint"/>
                        <mxPoint x="250" y="50" as="targetPoint"/>
                    </mxGeometry>
                </mxCell>
                <mxCell id="88" value="" style="endArrow=classic;html=1;" edge="1" parent="194">
                    <mxGeometry width="50" height="50" relative="1" as="geometry">
                        <mxPoint x="390" as="sourcePoint"/>
                        <mxPoint x="390" y="50" as="targetPoint"/>
                    </mxGeometry>
                </mxCell>
                <mxCell id="89" value="" style="endArrow=classic;html=1;" edge="1" parent="194">
                    <mxGeometry width="50" height="50" relative="1" as="geometry">
                        <mxPoint x="539.5" as="sourcePoint"/>
                        <mxPoint x="539.5" y="50" as="targetPoint"/>
                    </mxGeometry>
                </mxCell>
                <mxCell id="91" value="" style="endArrow=classic;html=1;" edge="1" parent="194">
                    <mxGeometry width="50" height="50" relative="1" as="geometry">
                        <mxPoint x="880" as="sourcePoint"/>
                        <mxPoint x="880" y="50" as="targetPoint"/>
                    </mxGeometry>
                </mxCell>
                <mxCell id="92" value="&lt;b&gt;PAYMENT&lt;/b&gt;" style="text;html=1;strokeColor=none;fillColor=none;align=center;verticalAlign=middle;whiteSpace=wrap;rounded=0;" vertex="1" parent="194">
                    <mxGeometry y="60" width="60" height="30" as="geometry"/>
                </mxCell>
                <mxCell id="93" value="" style="endArrow=classic;html=1;" edge="1" parent="194">
                    <mxGeometry width="50" height="50" relative="1" as="geometry">
                        <mxPoint x="760" as="sourcePoint"/>
                        <mxPoint x="760" y="50" as="targetPoint"/>
                    </mxGeometry>
                </mxCell>
                <mxCell id="94" value="PAYMENT_METHOD" style="text;html=1;strokeColor=none;fillColor=none;align=center;verticalAlign=middle;whiteSpace=wrap;rounded=0;" vertex="1" parent="194">
                    <mxGeometry x="720" y="60" width="60" height="30" as="geometry"/>
                </mxCell>
                <mxCell id="196" style="edgeStyle=none;html=1;exitX=0.5;exitY=0;exitDx=0;exitDy=0;" edge="1" parent="1" source="197">
                    <mxGeometry relative="1" as="geometry">
                        <mxPoint x="2175" y="830" as="targetPoint"/>
                        <Array as="points">
                            <mxPoint x="1300" y="780"/>
                            <mxPoint x="1430" y="780"/>
                            <mxPoint x="2175" y="780"/>
                        </Array>
                    </mxGeometry>
                </mxCell>
                <mxCell id="197" value="COMMENT_ID" style="text;html=1;strokeColor=none;fillColor=none;align=center;verticalAlign=middle;whiteSpace=wrap;rounded=0;" vertex="1" parent="1">
                    <mxGeometry x="1270" y="840" width="60" height="30" as="geometry"/>
                </mxCell>
                <mxCell id="198" value="COMMENT_TIME" style="text;html=1;strokeColor=none;fillColor=none;align=center;verticalAlign=middle;whiteSpace=wrap;rounded=0;" vertex="1" parent="1">
                    <mxGeometry x="1320" y="840" width="220" height="30" as="geometry"/>
                </mxCell>
                <mxCell id="199" value="COMMENT_TEXT" style="text;html=1;strokeColor=none;fillColor=none;align=center;verticalAlign=middle;whiteSpace=wrap;rounded=0;" vertex="1" parent="1">
                    <mxGeometry x="1560" y="840" width="60" height="30" as="geometry"/>
                </mxCell>
                <mxCell id="200" value="RATING_SCORE" style="text;html=1;strokeColor=none;fillColor=none;align=center;verticalAlign=middle;whiteSpace=wrap;rounded=0;" vertex="1" parent="1">
                    <mxGeometry x="1700" y="840" width="60" height="30" as="geometry"/>
                </mxCell>
                <mxCell id="202" value="BOOK_ID" style="text;html=1;strokeColor=none;fillColor=none;align=center;verticalAlign=middle;whiteSpace=wrap;rounded=0;" vertex="1" parent="1">
                    <mxGeometry x="1920" y="830" width="60" height="30" as="geometry"/>
                </mxCell>
                <mxCell id="203" value="" style="endArrow=classic;html=1;" edge="1" parent="1">
                    <mxGeometry width="50" height="50" relative="1" as="geometry">
                        <mxPoint x="1440" y="780" as="sourcePoint"/>
                        <mxPoint x="1440" y="830" as="targetPoint"/>
                    </mxGeometry>
                </mxCell>
                <mxCell id="204" value="" style="endArrow=classic;html=1;" edge="1" parent="1">
                    <mxGeometry width="50" height="50" relative="1" as="geometry">
                        <mxPoint x="1580" y="780" as="sourcePoint"/>
                        <mxPoint x="1580" y="830" as="targetPoint"/>
                    </mxGeometry>
                </mxCell>
                <mxCell id="205" value="" style="endArrow=classic;html=1;" edge="1" parent="1">
                    <mxGeometry width="50" height="50" relative="1" as="geometry">
                        <mxPoint x="1729.5" y="780" as="sourcePoint"/>
                        <mxPoint x="1729.5" y="830" as="targetPoint"/>
                    </mxGeometry>
                </mxCell>
                <mxCell id="207" value="&lt;b&gt;COMMENTS&lt;/b&gt;" style="text;html=1;strokeColor=none;fillColor=none;align=center;verticalAlign=middle;whiteSpace=wrap;rounded=0;" vertex="1" parent="1">
                    <mxGeometry x="1190" y="840" width="60" height="30" as="geometry"/>
                </mxCell>
                <mxCell id="208" value="" style="endArrow=classic;html=1;" edge="1" parent="1">
                    <mxGeometry width="50" height="50" relative="1" as="geometry">
                        <mxPoint x="1950" y="780" as="sourcePoint"/>
                        <mxPoint x="1950" y="830" as="targetPoint"/>
                    </mxGeometry>
                </mxCell>
                <mxCell id="209" value="PERSON_ID" style="text;html=1;strokeColor=none;fillColor=none;align=center;verticalAlign=middle;whiteSpace=wrap;rounded=0;" vertex="1" parent="1">
                    <mxGeometry x="2140" y="830" width="60" height="30" as="geometry"/>
                </mxCell>
                <mxCell id="210" style="edgeStyle=none;html=1;exitX=0.5;exitY=0;exitDx=0;exitDy=0;" edge="1" parent="1">
                    <mxGeometry relative="1" as="geometry">
                        <mxPoint x="1292.5" y="885" as="targetPoint"/>
                        <Array as="points">
                            <mxPoint x="2167.5" y="935"/>
                            <mxPoint x="2037.5" y="935"/>
                            <mxPoint x="1292.5" y="935"/>
                        </Array>
                        <mxPoint x="2167.5" y="875" as="sourcePoint"/>
                    </mxGeometry>
                </mxCell>
                <mxCell id="211" value="" style="endArrow=classic;html=1;" edge="1" parent="1">
                    <mxGeometry width="50" height="50" relative="1" as="geometry">
                        <mxPoint x="2027.5" y="935" as="sourcePoint"/>
                        <mxPoint x="2027.5" y="885" as="targetPoint"/>
                    </mxGeometry>
                </mxCell>
                <mxCell id="212" value="" style="endArrow=classic;html=1;" edge="1" parent="1">
                    <mxGeometry width="50" height="50" relative="1" as="geometry">
                        <mxPoint x="1887.5" y="935" as="sourcePoint"/>
                        <mxPoint x="1887.5" y="885" as="targetPoint"/>
                    </mxGeometry>
                </mxCell>
                <mxCell id="213" value="" style="endArrow=classic;html=1;" edge="1" parent="1">
                    <mxGeometry width="50" height="50" relative="1" as="geometry">
                        <mxPoint x="1738.5" y="935" as="sourcePoint"/>
                        <mxPoint x="1738.5" y="885" as="targetPoint"/>
                    </mxGeometry>
                </mxCell>
                <mxCell id="214" value="" style="endArrow=classic;html=1;" edge="1" parent="1">
                    <mxGeometry width="50" height="50" relative="1" as="geometry">
                        <mxPoint x="1589.55" y="935" as="sourcePoint"/>
                        <mxPoint x="1589.55" y="875" as="targetPoint"/>
                    </mxGeometry>
                </mxCell>
                <mxCell id="216" value="" style="endArrow=none;html=1;entryX=0.5;entryY=1;entryDx=0;entryDy=0;" edge="1" parent="1" target="198">
                    <mxGeometry width="50" height="50" relative="1" as="geometry">
                        <mxPoint x="1430" y="930" as="sourcePoint"/>
                        <mxPoint x="1730" y="860" as="targetPoint"/>
                    </mxGeometry>
                </mxCell>
                <mxCell id="217" value="CARD_ID" style="text;html=1;strokeColor=none;fillColor=none;align=center;verticalAlign=middle;whiteSpace=wrap;rounded=0;" vertex="1" parent="1">
                    <mxGeometry x="1730" y="680" width="60" height="30" as="geometry"/>
                </mxCell>
                <mxCell id="218" value="GUEST_ID" style="text;html=1;strokeColor=none;fillColor=none;align=center;verticalAlign=middle;whiteSpace=wrap;rounded=0;" vertex="1" parent="1">
                    <mxGeometry x="1640" y="680" width="60" height="30" as="geometry"/>
                </mxCell>
                <mxCell id="219" value="GUEST_CONTACT" style="text;html=1;strokeColor=none;fillColor=none;align=center;verticalAlign=middle;whiteSpace=wrap;rounded=0;" vertex="1" parent="1">
                    <mxGeometry x="2040" y="680" width="60" height="30" as="geometry"/>
                </mxCell>
                <mxCell id="220" value="" style="endArrow=classic;html=1;" edge="1" parent="1">
                    <mxGeometry width="50" height="50" relative="1" as="geometry">
                        <mxPoint x="1670" y="670" as="sourcePoint"/>
                        <mxPoint x="2040" y="680" as="targetPoint"/>
                        <Array as="points">
                            <mxPoint x="1670" y="630"/>
                            <mxPoint x="2040" y="630"/>
                        </Array>
                    </mxGeometry>
                </mxCell>
                <mxCell id="221" value="&lt;b&gt;GUEST_LOG&lt;/b&gt;" style="text;html=1;strokeColor=none;fillColor=none;align=center;verticalAlign=middle;whiteSpace=wrap;rounded=0;" vertex="1" parent="1">
                    <mxGeometry x="1570" y="680" width="60" height="30" as="geometry"/>
                </mxCell>
                <mxCell id="222" value="" style="endArrow=none;html=1;endFill=0;" edge="1" parent="1">
                    <mxGeometry width="50" height="50" relative="1" as="geometry">
                        <mxPoint x="1760" y="630" as="sourcePoint"/>
                        <mxPoint x="1760" y="680" as="targetPoint"/>
                    </mxGeometry>
                </mxCell>
                <mxCell id="223" value="GUEST_NAME" style="text;html=1;strokeColor=none;fillColor=none;align=center;verticalAlign=middle;whiteSpace=wrap;rounded=0;" vertex="1" parent="1">
                    <mxGeometry x="1810" y="680" width="60" height="30" as="geometry"/>
                </mxCell>
                <mxCell id="224" value="GUEST_ADDRESS" style="text;html=1;strokeColor=none;fillColor=none;align=center;verticalAlign=middle;whiteSpace=wrap;rounded=0;" vertex="1" parent="1">
                    <mxGeometry x="1910" y="680" width="60" height="30" as="geometry"/>
                </mxCell>
                <mxCell id="225" value="" style="endArrow=classic;html=1;" edge="1" parent="1">
                    <mxGeometry width="50" height="50" relative="1" as="geometry">
                        <mxPoint x="1860" y="630" as="sourcePoint"/>
                        <mxPoint x="1860" y="680" as="targetPoint"/>
                    </mxGeometry>
                </mxCell>
                <mxCell id="226" value="" style="endArrow=classic;html=1;" edge="1" parent="1">
                    <mxGeometry width="50" height="50" relative="1" as="geometry">
                        <mxPoint x="1950" y="630" as="sourcePoint"/>
                        <mxPoint x="1950" y="680" as="targetPoint"/>
                    </mxGeometry>
                </mxCell>
                <mxCell id="227" value="PROMOTION_CODE" style="text;html=1;strokeColor=none;fillColor=none;align=center;verticalAlign=middle;whiteSpace=wrap;rounded=0;" vertex="1" parent="1">
                    <mxGeometry x="2365" y="770" width="60" height="30" as="geometry"/>
                </mxCell>
                <mxCell id="228" value="PROMOTION_DESCRIPTION" style="text;html=1;strokeColor=none;fillColor=none;align=center;verticalAlign=middle;whiteSpace=wrap;rounded=0;" vertex="1" parent="1">
                    <mxGeometry x="2510" y="770" width="60" height="30" as="geometry"/>
                </mxCell>
                <mxCell id="229" value="" style="endArrow=classic;html=1;" edge="1" parent="1">
                    <mxGeometry width="50" height="50" relative="1" as="geometry">
                        <mxPoint x="2375" y="760" as="sourcePoint"/>
                        <mxPoint x="2515" y="760" as="targetPoint"/>
                        <Array as="points">
                            <mxPoint x="2375" y="720"/>
                            <mxPoint x="2515" y="720"/>
                        </Array>
                    </mxGeometry>
                </mxCell>
                <mxCell id="230" value="&lt;b&gt;PROMOTION&lt;/b&gt;" style="text;html=1;strokeColor=none;fillColor=none;align=center;verticalAlign=middle;whiteSpace=wrap;rounded=0;" vertex="1" parent="1">
                    <mxGeometry x="2250" y="770" width="60" height="30" as="geometry"/>
                </mxCell>
                <mxCell id="231" value="CARD_ID" style="text;html=1;strokeColor=none;fillColor=none;align=center;verticalAlign=middle;whiteSpace=wrap;rounded=0;" vertex="1" parent="1">
                    <mxGeometry x="2405" y="890" width="60" height="30" as="geometry"/>
                </mxCell>
                <mxCell id="232" value="PROMOTION_CODE" style="text;html=1;strokeColor=none;fillColor=none;align=center;verticalAlign=middle;whiteSpace=wrap;rounded=0;" vertex="1" parent="1">
                    <mxGeometry x="2550" y="890" width="60" height="30" as="geometry"/>
                </mxCell>
                <mxCell id="234" value="&lt;b&gt;PROMOTION&lt;/b&gt;" style="text;html=1;strokeColor=none;fillColor=none;align=center;verticalAlign=middle;whiteSpace=wrap;rounded=0;" vertex="1" parent="1">
                    <mxGeometry x="2290" y="890" width="60" height="30" as="geometry"/>
                </mxCell>
                <mxCell id="236" value="" style="endArrow=classic;html=1;exitX=0.633;exitY=1.067;exitDx=0;exitDy=0;entryX=0.25;entryY=1;entryDx=0;entryDy=0;exitPerimeter=0;" edge="1" parent="1">
                    <mxGeometry width="50" height="50" relative="1" as="geometry">
                        <mxPoint x="1341.48" y="532.0099999999998" as="sourcePoint"/>
                        <mxPoint x="1208.5" y="530" as="targetPoint"/>
                        <Array as="points">
                            <mxPoint x="1341.5" y="570"/>
                            <mxPoint x="1208.5" y="570"/>
                        </Array>
                    </mxGeometry>
                </mxCell>
            </root>
        </mxGraphModel>
    </diagram>
</mxfile>